<svg xmlns="http://www.w3.org/2000/svg" width="2500" height="2500" fill="none" viewBox="0 0 2500 2500" id="waiter">
  <path fill="#455A64" d="M1347.45 2419.86V1677.68C1347.42 1656.96 1339.18 1637.11 1324.54 1622.46C1309.89 1607.81 1290.03 1599.57 1269.32 1599.55H1016.46C1031.26 1322.63 1279.1 1102.24 1542.98 1091.74H1933.59C2206.72 1102.6 2421.88 1339.51 2421.88 1631.04V2419.86H1347.45Z"></path>
  <path fill="#E8E5D1" d="M1328.13 1147.43C1157.7 1231.26 1027.08 1400.84 1016.46 1599.55H1269.32C1280.51 1599.59 1291.55 1602.04 1301.7 1606.75 1311.85 1611.45 1320.87 1618.29 1328.13 1626.8V1147.43zM1570.35 1143.81H1906.21L1738.28 1547.05 1570.35 1143.81z"></path>
  <path fill="#F0BEB4" d="M1738.28 900.449C1651.92 900.376 1567.79 873.021 1497.9 822.291C1428.01 771.562 1375.93 700.049 1349.1 617.962C1322.27 535.876 1322.06 447.411 1348.5 365.196C1374.93 282.982 1426.67 211.22 1496.31 160.154C1565.96 109.089 1649.95 81.331 1736.31 80.8423C1822.67 80.3536 1906.98 107.159 1977.2 157.433C2047.41 207.707 2099.96 278.879 2127.32 360.789C2154.69 442.699 2155.47 531.161 2129.57 613.546C2103.71 696.985 2051.71 769.905 1981.27 821.56C1910.82 873.214 1825.64 900.87 1738.28 900.449Z"></path>
  <path fill="#8D6E63" d="M2051.35 550.442C1898.6 549.083 1751.31 493.463 1635.78 393.516C1628.68 387.353 1619.59 383.96 1610.18 383.96C1608.45 383.96 1606.72 384.075 1605.01 384.303C1599.51 385.037 1594.24 386.931 1589.54 389.86C1584.84 392.788 1580.81 396.684 1577.73 401.288C1523.65 482.036 1434.34 495.215 1347.96 507.966L1328.56 507.986C1328.27 501.966 1328.12 496.082 1328.12 490.293C1328.12 381.513 1371.34 277.188 1448.26 200.269C1525.18 123.349 1629.5 80.1367 1738.28 80.1367C1847.06 80.1367 1951.39 123.349 2028.31 200.269C2105.22 277.188 2148.44 381.513 2148.44 490.293C2148.4 507.48 2147.26 524.647 2145 541.687C2114.15 547.651 2082.78 550.584 2051.35 550.442Z"></path>
  <path fill="#E53935" d="M1745.94 1155.89C1740.88 1154.87 1735.68 1154.87 1730.62 1155.89L1542.98 1193.42L1542.97 998.106L1730.62 1035.63C1735.68 1036.65 1740.88 1036.65 1745.94 1035.63L1933.58 998.106L1933.59 1193.42L1745.94 1155.89Z"></path>
  <path fill="#C62828" d="M1542.97 998.106L1699.22 1029.36V1162.17L1542.97 1193.42V998.106Z"></path>
  <path fill="#E8E5D1" d="M2187.71 1175.72V2419.86H2421.87V1631.04C2422.94 1541.8 2402.16 1453.66 2361.34 1374.3C2320.53 1294.93 2260.92 1226.76 2187.71 1175.72Z"></path>
  <path fill="#B2DFDB" d="M214.844 1540.96C178.596 1540.92 143.845 1526.5 118.214 1500.87C92.5829 1475.24 78.1656 1440.49 78.125 1404.24V1130.8H449.219V1404.24C449.178 1440.49 434.761 1475.24 409.13 1500.87C383.499 1526.5 348.748 1540.92 312.5 1540.96H214.844Z"></path>
  <path fill="#F0BEB4" d="M785.656 2126.89C753.419 2126.86 722.513 2114.03 699.718 2091.24C676.923 2068.44 664.1 2037.54 664.062 2005.3V1931.58H1113.28V2005.3C1113.24 2037.54 1100.42 2068.44 1077.63 2091.24C1054.83 2114.03 1023.92 2126.86 991.688 2126.89H785.656Z"></path>
  <path fill="#F9A825" d="M527.344 1814.39V1677.68C527.432 1600 558.326 1525.54 613.249 1470.61C668.173 1415.69 742.639 1384.79 820.312 1384.71H1132.81C1210.49 1384.79 1284.95 1415.69 1339.88 1470.61C1394.8 1525.54 1425.69 1600 1425.78 1677.68V1814.39H527.344Z"></path>
  <path fill="#000" d="M1484.38 1972.56C1494.74 1972.56 1504.67 1968.45 1512 1961.12 1519.32 1953.79 1523.44 1943.86 1523.44 1933.5 1523.44 1923.14 1519.32 1913.2 1512 1905.88 1504.67 1898.55 1494.74 1894.44 1484.38 1894.44H78.125C67.765 1894.44 57.8293 1898.55 50.5036 1905.88 43.178 1913.2 39.0625 1923.14 39.0625 1933.5 39.0625 1943.86 43.178 1953.79 50.5036 1961.12 57.8293 1968.45 67.765 1972.56 78.125 1972.56H625V2007.22C625.048 2049.81 641.989 2090.65 672.108 2120.77 702.226 2150.88 743.062 2167.83 785.656 2167.87H991.688C1034.28 2167.83 1075.12 2150.88 1105.24 2120.77 1135.35 2090.65 1152.3 2049.81 1152.34 2007.22V1972.56H1484.38zM1074.22 2007.22C1074.19 2029.1 1065.49 2050.08 1050.02 2065.55 1034.55 2081.02 1013.57 2089.72 991.688 2089.75H785.656C763.775 2089.72 742.797 2081.02 727.324 2065.55 711.852 2050.08 703.149 2029.1 703.125 2007.22V1972.56H1074.22V2007.22zM1738.28 937.405C1832.83 937.432 1924.98 907.634 2001.61 852.254 2078.24 796.874 2135.45 718.732 2165.1 628.952 2194.74 539.172 2195.31 442.328 2166.73 352.204 2138.14 262.081 2081.86 183.27 2005.88 126.99 1929.91 70.7103 1838.12 39.8285 1743.58 38.7407 1649.04 37.6529 1556.56 66.4143 1479.31 120.931 1402.07 175.448 1343.98 252.943 1313.33 342.385 1282.68 431.827 1281.02 528.658 1308.59 619.097 1336.38 711.355 1393.21 792.176 1470.63 849.53 1548.06 906.883 1641.93 937.704 1738.28 937.405zM1738.28 859.28C1658.64 859.645 1581.03 834.221 1517.04 786.808 1453.05 739.395 1406.13 672.542 1383.3 596.247 1377.76 578.184 1373.65 559.716 1371 541.011 1456.21 527.867 1546.92 507.83 1605.23 419.56 1752.29 541.792 1911.61 591.927 2036.31 591.917 2056.16 591.919 2075.98 590.494 2095.61 587.652 2094.5 591.669 2093.57 595.739 2092.31 599.718 2068.8 675.147 2021.74 741.055 1958.02 787.77 1894.3 834.485 1817.29 859.548 1738.28 859.28zM1738.28 117.092C1836.67 117.204 1930.99 156.337 2000.56 225.906 2070.13 295.476 2109.26 389.8 2109.38 488.186 2109.38 494.057 2108.98 499.879 2108.71 505.717 1990.25 534.689 1794.94 491.621 1620.73 329.141 1616.14 324.858 1610.59 321.746 1604.54 320.066 1598.49 318.386 1592.13 318.188 1585.99 319.49 1579.84 320.791 1574.11 323.553 1569.26 327.543 1564.41 331.532 1560.6 336.63 1558.14 342.406 1521.04 429.58 1451.19 449.079 1368.5 462.325 1375.09 368.697 1416.89 281.038 1485.5 216.986 1554.1 152.934 1644.42 117.243 1738.28 117.092z"></path>
  <path fill="#000" d="M1972.66 1057.64V995.999C1972.66 990.219 1971.38 984.511 1968.91 979.287C1966.43 974.062 1962.83 969.452 1958.36 965.788C1953.89 962.124 1948.67 959.498 1943.06 958.099C1937.45 956.7 1931.6 956.563 1925.94 957.699L1738.28 995.23L1550.63 957.699C1544.96 956.563 1539.11 956.7 1533.5 958.099C1527.9 959.498 1522.67 962.124 1518.2 965.788C1513.73 969.452 1510.13 974.062 1507.66 979.287C1505.19 984.511 1503.9 990.219 1503.91 995.999V1057.91C1366.55 1072.82 1239.87 1139.02 1149.2 1243.27C1142.41 1251.1 1139.01 1261.3 1139.75 1271.63C1140.49 1281.97 1145.3 1291.58 1153.13 1298.37C1160.95 1305.16 1171.16 1308.55 1181.49 1307.82C1191.83 1307.08 1201.44 1302.27 1208.23 1294.44C1232.21 1266.87 1259.34 1242.21 1289.06 1220.97V1308.5C1289.06 1318.86 1293.18 1328.79 1300.5 1336.12C1307.83 1343.45 1317.77 1347.56 1328.13 1347.56C1338.49 1347.56 1348.42 1343.45 1355.75 1336.12C1363.07 1328.79 1367.19 1318.86 1367.19 1308.5V1175.59C1410.51 1155.69 1456.61 1142.52 1503.91 1136.53V1191.31C1503.89 1200.6 1507.2 1209.59 1513.23 1216.66C1519.27 1223.73 1527.63 1228.4 1536.81 1229.85L1699.22 1619.82V2382.91H1367.19V2050.69C1367.19 2040.33 1363.07 2030.39 1355.75 2023.06C1348.42 2015.74 1338.49 2011.62 1328.13 2011.62C1317.77 2011.62 1307.83 2015.74 1300.5 2023.06C1293.18 2030.39 1289.06 2040.33 1289.06 2050.69V2421.78L1289.07 2421.88L1289.06 2421.97C1289.06 2432.33 1293.18 2442.27 1300.5 2449.59C1307.83 2456.92 1317.77 2461.03 1328.13 2461.03H2421.87C2432.23 2461.03 2442.17 2456.92 2449.5 2449.59C2456.82 2442.27 2460.94 2432.33 2460.94 2421.97V1601.42C2461.43 1466.38 2411.75 1335.97 2321.52 1235.49C2231.3 1135.02 2106.97 1071.63 1972.66 1057.64ZM1738.28 1510.41L1615.9 1216.56L1738.28 1192.08L1860.66 1216.56L1738.28 1510.41ZM1894.53 1143.67L1777.34 1120.22V1067.09L1894.53 1043.64V1143.67ZM1582.03 1043.64L1699.22 1067.09V1120.22L1582.03 1143.67V1043.64ZM1777.34 1619.82L1939.76 1229.85C1948.93 1228.4 1957.3 1223.73 1963.33 1216.66C1969.36 1209.59 1972.67 1200.6 1972.66 1191.31V1136.23C2027.22 1142.85 2080.19 1159.06 2129.12 1184.11V2382.91H1777.34V1619.82ZM2382.81 2382.91H2207.24V1234.78C2262.22 1278.73 2306.56 1334.54 2336.96 1398.02C2367.36 1461.5 2383.03 1531.03 2382.81 1601.42V2382.91Z"></path>
  <path fill="#000" d="M488.281 1816.31C488.282 1826.67 492.397 1836.61 499.723 1843.93 507.048 1851.26 516.984 1855.37 527.344 1855.37H1425.78C1436.14 1855.37 1446.08 1851.26 1453.4 1843.93 1460.73 1836.61 1464.84 1826.67 1464.84 1816.31V1679.59C1464.75 1591.56 1429.73 1507.17 1367.49 1444.92 1305.24 1382.67 1220.84 1347.66 1132.81 1347.56H820.312C732.282 1347.66 647.886 1382.67 585.639 1444.92 523.393 1507.17 488.379 1591.56 488.281 1679.59V1816.31zM566.406 1679.59C566.481 1612.27 593.256 1547.74 640.856 1500.14 688.457 1452.54 752.995 1425.76 820.312 1425.69H1132.81C1200.13 1425.76 1264.67 1452.54 1312.27 1500.14 1359.87 1547.74 1386.64 1612.27 1386.72 1679.59V1777.25H566.406V1679.59zM898.438 1308.5H1054.69C1065.05 1308.5 1074.98 1304.38 1082.31 1297.06 1089.63 1289.73 1093.75 1279.8 1093.75 1269.44 1093.75 1259.08 1089.63 1249.14 1082.31 1241.81 1074.98 1234.49 1065.05 1230.37 1054.69 1230.37H898.438C888.077 1230.37 878.142 1234.49 870.816 1241.81 863.49 1249.14 859.375 1259.08 859.375 1269.44 859.375 1279.8 863.49 1289.73 870.816 1297.06 878.142 1304.38 888.077 1308.5 898.438 1308.5zM449.219 1093.75H78.125C67.7651 1093.75 57.8297 1097.87 50.5042 1105.19 43.1787 1112.52 39.063 1122.45 39.0625 1132.81V1406.25C39.1166 1452.85 57.6538 1497.53 90.6074 1530.49 123.561 1563.44 168.24 1581.98 214.844 1582.03H224.609V1777.34H146.484C136.124 1777.34 126.189 1781.46 118.863 1788.78 111.537 1796.11 107.422 1806.05 107.422 1816.41 107.422 1826.77 111.537 1836.7 118.863 1844.03 126.189 1851.35 136.124 1855.47 146.484 1855.47H380.859C391.219 1855.47 401.155 1851.35 408.481 1844.03 415.806 1836.7 419.922 1826.77 419.922 1816.41 419.922 1806.05 415.806 1796.11 408.481 1788.78 401.155 1781.46 391.219 1777.34 380.859 1777.34H302.734V1582.03H312.5C359.103 1581.98 403.783 1563.44 436.736 1530.49 469.69 1497.53 488.227 1452.85 488.281 1406.25V1132.81C488.281 1122.45 484.165 1112.52 476.84 1105.19 469.514 1097.87 459.579 1093.75 449.219 1093.75zM410.156 1406.25C410.126 1432.14 399.827 1456.96 381.52 1475.27 363.212 1493.58 338.391 1503.88 312.5 1503.91H214.844C188.953 1503.88 164.131 1493.58 145.824 1475.27 127.516 1456.96 117.218 1432.14 117.188 1406.25V1171.88H410.156V1406.25z"></path>
</svg>
